<?xml version="1.0" encoding="UTF-8"?>
<svg id="a" data-name="Layer 1" xmlns="http://www.w3.org/2000/svg" viewBox="0 0 94.45 95.12">
  <defs>
    <style>
      .b {
        fill: #f1f2f2;
        stroke-width: 0px;
      }
    </style>
  </defs>
  <path class="b" d="M78.4,23.83l-11.25,23.42-12.41-23.42v27.33c-3.51-4.48-8.28-8.44-14.2-11.8l-1.64-.92v-19.57c-.12-.07-.24-.13-.36-.2-2.79-1.54-5.48-2.31-8.07-2.31-3.51,0-6.24.81-8.19,2.44-1.95,1.63-2.93,3.99-2.93,7.07,0,2.04.69,3.97,2.06,5.8,1.38,1.82,3.34,3.47,5.89,4.95l11.48,6.45s.08.05.11.07c5.92,3.37,10.49,7.3,13.72,11.79.81,1.12,1.51,2.26,2.11,3.42,1.84,3.52,2.76,7.22,2.76,11.11,0,.89-.03,1.76-.1,2.6-.52,6.95-3.2,12.42-8.03,16.39-2.85,2.35-6.34,4.07-10.46,5.18-3.7,1-7.93,1.5-12.67,1.5s-9.5-.45-14.05-1.34c-4.55-.89-8.61-2.14-12.19-3.75l2.15-17.59c4.38,2,8.74,3.54,13.06,4.63,4.32,1.08,8.32,1.63,11.98,1.63,4.27,0,7.53-.82,9.81-2.48.77-.56,1.4-1.2,1.91-1.92,1-1.41,1.5-3.14,1.5-5.18,0-1.87-.5-3.56-1.5-5.07-1.16-1.76-2.99-3.28-5.49-4.57l-12.19-6.45c-6.02-3.21-10.68-7.19-13.99-11.92-3.31-4.74-4.96-9.97-4.96-15.7,0-8.08,2.45-14.33,7.35-18.76S21.46,0,30.43,0c3.44,0,6.76.43,9.97,1.3h20.1c6.95,0,12.99,1.08,18.12,3.25V1.3h15.84v92.51h-15.84v-3.07c-5.13,2.05-11.17,3.07-18.12,3.07h-11.67c1.01-.62,1.95-1.31,2.85-2.05,5.81-4.77,9.02-11.4,9.57-19.72h5.26c4.66,0,8.91-1.93,12.1-5.09"/>
</svg>