<?xml version="1.0" encoding="UTF-8"?>
<svg id="a" data-name="Layer 1" xmlns="http://www.w3.org/2000/svg" viewBox="0 0 200 200">
  <defs>
    <style>
      .b {
        fill: #f1f2f2;
        stroke-width: 0px;
      }
    </style>
  </defs>
  <path class="b" d="M171.69,46.09v116.09h-27.3l-11.17-10.1-19.21-17.38-24.99-22.61-20.48-18.53-9.76-9.52c-.73-.51-3.07-1.33-2.97,1.41v46.55c0,1.49,1.21,2.7,2.7,2.7h13.05c3.93-4.73,9.86-7.74,16.5-7.74,9.88,0,18.2,6.67,20.7,15.75.5,1.82.77,3.74.77,5.71,0,5.24-1.88,10.04-4.99,13.76-3.94,4.71-9.85,7.7-16.47,7.7s-12.53-2.99-16.47-7.7h-27.32c-8.81,0-15.94-7.14-15.94-15.94V50.02c0-14.39,17.56-21.42,27.48-10.99l44.21,42.49,20.49,18.53,19.21,17.38c1.74,1.57,4.51.34,4.51-2v-37.24c0-2.34-2.78-3.57-4.51-2l-15.68,14.52-20.48-18.53,40.67-37.13.85-.76c10.25-9.27,26.64-2,26.64,11.82Z"/>
</svg>